<svg width="259" height="320" viewBox="0 0 259 320" fill="none" xmlns="http://www.w3.org/2000/svg">
<g filter="url(#filter0_d_42_243)">
<g clip-path="url(#clip0_42_243)">
<rect x="33" y="58.7952" width="150.935" height="227.827" rx="7.11959" transform="rotate(-11.3852 33 58.7952)" fill="#C2EDF6"/>
<path d="M131.322 156.899C131.322 156.899 129.3 151.129 128.005 147.432M118.498 120.294C114.888 113.665 109.254 103.321 109.254 103.321M118.498 120.294C117.447 114.431 117.376 110.946 118.187 105.045C118.968 99.3691 122.35 90.9767 122.35 90.9767C122.35 90.9767 123.603 100.726 122.674 106.861C121.851 112.292 120.9 115.353 118.498 120.294ZM118.498 120.294C118.498 120.294 124.293 136.834 128.005 147.432M100.009 86.3472C100.009 86.3472 96.3006 78.5708 92.7736 74.4178C89.1314 70.1292 81.7781 65.1076 81.7781 65.1076C81.7781 65.1076 83.9813 73.0255 87.1071 77.0758C90.8978 81.9876 100.009 86.3472 100.009 86.3472ZM100.009 86.3472L109.254 103.321M109.254 103.321C109.254 103.321 102.86 99.3451 98.3358 97.8225C93.0762 96.0526 84.306 95.5661 84.306 95.5661C84.306 95.5661 89.8171 101.911 94.6402 103.619C100.021 105.523 109.254 103.321 109.254 103.321ZM128.005 147.432C121.855 144.579 112.256 140.126 112.256 140.126M96.5068 132.819C96.5068 132.819 88.6549 127.8 83.0217 126.102C79.6196 125.077 74.0878 124.378 74.0878 124.378C74.0878 124.378 79.5885 130.753 84.422 132.43C88.8829 133.978 96.5068 132.819 96.5068 132.819ZM96.5068 132.819L112.256 140.126M112.256 140.126C112.256 140.126 103.862 141.985 99.2944 144.839C95.7104 147.079 91.1772 151.997 91.1772 151.997C91.1772 151.997 99.8772 150.835 104.442 147.912C108.07 145.59 112.256 140.126 112.256 140.126ZM126.524 139.835C126.524 139.835 128.119 136.144 129.584 134.052C132.831 129.417 140.84 124.923 140.84 124.923C140.84 124.923 138.148 132.057 134.693 135.219C131.99 137.693 126.524 139.835 126.524 139.835ZM108.057 138.178C108.057 138.178 107.156 130.29 105.259 125.649C103.408 121.118 98.6856 114.977 98.6856 114.977C98.6856 114.977 98.7092 122.144 100.189 126.388C102.012 131.614 108.057 138.178 108.057 138.178Z" stroke="#09384D" stroke-width="1.27099"/>
<rect x="56.8827" y="170.186" width="148.087" height="113.913" transform="rotate(-11.3852 56.8827 170.186)" fill="#007094"/>
</g>
<rect x="33.8385" y="59.3526" width="149.511" height="226.403" rx="6.40763" transform="rotate(-11.3852 33.8385 59.3526)" stroke="white" stroke-width="1.42392" shape-rendering="crispEdges"/>
</g>
<defs>
<filter id="filter0_d_42_243" x="-1" y="-0.999977" width="260.939" height="321.139" filterUnits="userSpaceOnUse" color-interpolation-filters="sRGB">
<feFlood flood-opacity="0" result="BackgroundImageFix"/>
<feColorMatrix in="SourceAlpha" type="matrix" values="0 0 0 0 0 0 0 0 0 0 0 0 0 0 0 0 0 0 127 0" result="hardAlpha"/>
<feOffset dy="4"/>
<feGaussianBlur stdDeviation="17"/>
<feComposite in2="hardAlpha" operator="out"/>
<feColorMatrix type="matrix" values="0 0 0 0 0 0 0 0 0 0 0 0 0 0 0 0 0 0 0.1 0"/>
<feBlend mode="normal" in2="BackgroundImageFix" result="effect1_dropShadow_42_243"/>
<feBlend mode="normal" in="SourceGraphic" in2="effect1_dropShadow_42_243" result="shape"/>
</filter>
<clipPath id="clip0_42_243">
<rect x="33" y="58.7952" width="150.935" height="227.827" rx="7.11959" transform="rotate(-11.3852 33 58.7952)" fill="white"/>
</clipPath>
</defs>
</svg>
